static_grf.mot
version=1
nRows=30
nColumns 19
inDegrees=yes
endheader
time	1_ground_force_vx	1_ground_force_vy	1_ground_force_vz	1_ground_force_px	1_ground_force_py	1_ground_force_pz	1_ground_torque_x	1_ground_torque_y	1_ground_torque_z	2_ground_force_vx	2_ground_force_vy	2_ground_force_vz	2_ground_force_px	2_ground_force_py	2_ground_force_pz	2_ground_torque_x	2_ground_torque_y	2_ground_torque_z
            0.503500	            1.174038	          245.453698	          -25.043198	           -0.245665	            0.006162	           -0.391745	            0.005779	            1.208167	           -0.123267	           -2.554309	          230.634677	           27.995404	           -0.227760	            0.005740	           -0.719826	            0.009019	           -0.814335	           -0.098847
            0.504000	            0.990487	          245.814391	          -25.087053	           -0.245534	            0.006163	           -0.391785	            0.004793	            1.189507	           -0.121397	           -2.275971	          231.373122	           27.763272	           -0.227659	            0.005742	           -0.720272	            0.008780	           -0.892541	           -0.107099
            0.504500	            0.989965	          246.175709	          -25.268931	           -0.245698	            0.006161	           -0.391462	            0.005180	            1.288222	           -0.132231	           -2.320183	          230.636527	           27.713736	           -0.227870	            0.005739	           -0.719664	            0.009356	           -0.929995	           -0.111750
            0.505000	            1.311322	          246.174984	          -25.086304	           -0.245736	            0.006161	           -0.391348	            0.006694	            1.256621	           -0.128055	           -2.416541	          231.372782	           27.716404	           -0.227739	            0.005741	           -0.720026	            0.009374	           -0.897473	           -0.107509
            0.505500	            0.989591	          246.356564	          -25.405726	           -0.245849	            0.006162	           -0.391615	            0.005087	            1.266334	           -0.130592	           -2.320039	          230.635355	           28.042232	           -0.228002	            0.005740	           -0.720074	            0.008242	           -0.819386	           -0.099627
            0.506000	            1.035743	          246.536249	          -25.267499	           -0.245920	            0.006159	           -0.391033	            0.005228	            1.244367	           -0.127535	           -2.227710	          231.004340	           27.949650	           -0.228531	            0.005739	           -0.720335	            0.008879	           -0.920708	           -0.111398
            0.506500	            0.760376	          246.356520	          -25.405157	           -0.246068	            0.006160	           -0.391239	            0.003715	            1.203509	           -0.124110	           -2.231033	          231.925074	           27.952936	           -0.228005	            0.005740	           -0.719977	            0.008351	           -0.868163	           -0.104636
            0.507000	            1.174104	          245.093167	          -25.044744	           -0.245906	            0.006164	           -0.392098	            0.005864	            1.224149	           -0.125089	           -2.508850	          231.003660	           27.855914	           -0.228075	            0.005739	           -0.719682	            0.009307	           -0.856907	           -0.103331
            0.507500	            1.127575	          246.355804	          -25.222643	           -0.245758	            0.006161	           -0.391352	            0.005732	            1.252395	           -0.128224	           -2.320142	          230.636192	           27.807592	           -0.228129	            0.005738	           -0.719664	            0.009042	           -0.898781	           -0.108365
            0.508000	            0.715414	          245.273737	          -25.134545	           -0.245749	            0.006163	           -0.391870	            0.003540	            1.213630	           -0.124367	           -2.229039	          231.372621	           27.950965	           -0.228051	            0.005739	           -0.719785	            0.008828	           -0.916378	           -0.110703
            0.508500	            0.989462	          245.816160	          -25.499756	           -0.245595	            0.006163	           -0.391780	            0.004852	            1.205404	           -0.125043	           -2.415212	          231.004500	           27.715090	           -0.228389	            0.005738	           -0.719926	            0.009268	           -0.886443	           -0.106352
            0.509000	            1.082221	          246.174743	          -25.039879	           -0.246180	            0.006162	           -0.391726	            0.005315	            1.209068	           -0.122981	           -2.271860	          230.267243	           28.040898	           -0.227902	            0.005738	           -0.719403	            0.008287	           -0.839913	           -0.102281
            0.509500	            0.714958	          245.274524	          -25.317969	           -0.245988	            0.006163	           -0.391978	            0.003455	            1.185300	           -0.122350	           -2.180839	          231.004342	           27.996559	           -0.228201	            0.005739	           -0.719848	            0.008739	           -0.925676	           -0.112187
            0.510000	            1.081750	          245.634929	          -25.271477	           -0.245748	            0.006164	           -0.391992	            0.005289	            1.200912	           -0.123553	           -2.367554	          230.819357	           28.042909	           -0.228151	            0.005738	           -0.719593	            0.008772	           -0.855164	           -0.103896
            0.510500	            0.990765	          244.912866	          -25.045062	           -0.245950	            0.006165	           -0.392356	            0.004931	            1.218905	           -0.124647	           -2.136730	          231.741774	           27.811455	           -0.228196	            0.005740	           -0.720290	            0.008944	           -0.970022	           -0.116413
            0.511000	            0.990373	          245.814587	          -25.132909	           -0.245724	            0.006162	           -0.391715	            0.005150	            1.278198	           -0.130687	           -2.602468	          231.002652	           28.043666	           -0.227926	            0.005740	           -0.719925	            0.009271	           -0.822930	           -0.099904
            0.511500	            0.806971	          244.733351	          -25.228803	           -0.246519	            0.006163	           -0.391877	            0.004053	            1.229075	           -0.126702	           -2.228436	          231.188983	           27.809523	           -0.228153	            0.005738	           -0.719614	            0.008408	           -0.872253	           -0.104923
            0.512000	            1.219165	          245.635153	          -25.317674	           -0.245930	            0.006163	           -0.391919	            0.006218	            1.252779	           -0.129124	           -2.323465	          231.556956	           27.810877	           -0.228156	            0.005741	           -0.720280	            0.008845	           -0.881534	           -0.105876
            0.512500	            1.036426	          246.535069	          -24.992363	           -0.246158	            0.006160	           -0.391214	            0.005205	            1.238051	           -0.125507	           -2.226442	          230.636530	           27.807552	           -0.227721	            0.005739	           -0.719503	            0.008671	           -0.898224	           -0.108298
            0.513000	            0.898591	          245.093900	          -25.227485	           -0.246049	            0.006164	           -0.392136	            0.004304	            1.174026	           -0.120842	           -2.417788	          231.740424	           27.905430	           -0.228145	            0.005740	           -0.720125	            0.009471	           -0.907772	           -0.109311
            0.513500	            0.806869	          246.535615	          -25.129362	           -0.246219	            0.006161	           -0.391319	            0.003870	            1.182526	           -0.120535	           -2.559667	          232.108198	           27.906804	           -0.227995	            0.005741	           -0.720141	            0.009895	           -0.897242	           -0.107877
            0.514000	            0.807133	          245.093489	          -25.135546	           -0.246217	            0.006166	           -0.392504	            0.003897	            1.183495	           -0.121373	           -2.227751	          231.004675	           27.855794	           -0.227960	            0.005738	           -0.719359	            0.008903	           -0.923170	           -0.111321
            0.514500	            0.853122	          244.913036	          -25.090576	           -0.246364	            0.006165	           -0.392443	            0.004188	            1.202254	           -0.123167	           -2.272545	          230.451551	           27.994627	           -0.228039	            0.005740	           -0.719900	            0.008887	           -0.901244	           -0.109481
            0.515000	            0.853299	          245.813774	          -24.949144	           -0.245902	            0.006160	           -0.391230	            0.003833	            1.104107	           -0.112063	           -2.412451	          230.267070	           27.947102	           -0.228196	            0.005738	           -0.719480	            0.009512	           -0.907950	           -0.110196
            0.515500	            0.806594	          246.175673	          -25.268476	           -0.246170	            0.006161	           -0.391314	            0.003785	            1.155253	           -0.118580	           -2.463974	          231.556114	           27.904793	           -0.228318	            0.005741	           -0.720440	            0.009357	           -0.879320	           -0.105967
            0.516000	            0.990193	          246.175315	          -25.177219	           -0.245955	            0.006161	           -0.391294	            0.004943	            1.228911	           -0.125685	           -2.183457	          231.740600	           28.093043	           -0.228619	            0.005738	           -0.720128	            0.008740	           -0.927628	           -0.112453
            0.516500	            1.081750	          245.634929	          -25.271477	           -0.245747	            0.006162	           -0.391609	            0.005287	            1.200461	           -0.123506	           -2.415171	          231.004165	           27.808946	           -0.227739	            0.005741	           -0.720008	            0.009181	           -0.878129	           -0.105712
            0.517000	            1.081831	          245.814998	          -25.224848	           -0.245886	            0.006161	           -0.391424	            0.005337	            1.212599	           -0.124434	           -2.693591	          230.266390	           27.853365	           -0.227824	            0.005740	           -0.719804	            0.009808	           -0.838452	           -0.101420
            0.517500	            0.898411	          245.454628	          -25.271795	           -0.246014	            0.006163	           -0.391866	            0.004430	            1.210412	           -0.124623	           -2.417871	          231.741093	           27.717718	           -0.227813	            0.005740	           -0.719881	            0.009678	           -0.927582	           -0.110945
            0.518000	            0.898345	          245.815160	          -25.270249	           -0.245769	            0.006162	           -0.391742	            0.004400	            1.203850	           -0.123758	           -2.510179	          231.371941	           27.857228	           -0.228073	            0.005740	           -0.719944	            0.009506	           -0.876183	           -0.105493
